<svg xmlns="http://www.w3.org/2000/svg" width="100" height="100" viewbox="0 0 100 100">

    <polygon points="50,25 75,50 50,75 25,50" fill="#1C1C1C" />
    <polygon points="0,0 25,0 0,25" fill="#1C1C1C" />
    <polygon points="100,0 75,0 100,25" fill="#1C1C1C" />
    <polygon points="0,100 25,100 0,75" fill="#1C1C1C" />
    <polygon points="100,100 75,100 100,75" fill="#1C1C1C" />

    <polygon points="25,0 75,0 50,25" fill="#262626" />
    <polygon points="100,25 100,75 75,50" fill="#262626" />
    <polygon points="75,100 25,100 50,75" fill="#262626" />
    <polygon points="0,75 0,25 25,50" fill="#262626" />

    <polygon points="25,0 50,25 25,50 0,25" fill="#222222" />
    <polygon points="75,50 100,75 75,100 50,75" fill="#222222" />

    <polygon points="75,0 100,25 75,50 50,25" fill="#202020" />
    <polygon points="25,50 50,75 25,100 0,75" fill="#202020" />

    <rect width="100" height="100" fill="rgba(0, 0, 0, 20%)" />
    
</svg>
